<svg xmlns="http://www.w3.org/2000/svg" viewBox="0 0 512 512" width="512" height="512">
  <defs>
    <radialGradient id="grad1" cx="50%" cy="50%" r="50%">
      <stop offset="0%" style="stop-color:#6BA5F5;stop-opacity:1" />
      <stop offset="100%" style="stop-color:#4A8EF0;stop-opacity:1" />
    </radialGradient>
  </defs>
  
  <!-- Outer wave rings -->
  <g opacity="0.3">
    <path d="M256,20 C372.5,20 467,114.5 467,231 C467,347.5 372.5,442 256,442 C139.5,442 45,347.5 45,231 C45,114.5 139.5,20 256,20 Z" fill="none" stroke="#4A8EF0" stroke-width="25"/>
  </g>
  <g opacity="0.4">
    <path d="M256,60 C350.4,60 427,136.6 427,231 C427,325.4 350.4,402 256,402 C161.6,402 85,325.4 85,231 C85,136.6 161.6,60 256,60 Z" fill="none" stroke="#5A9AF3" stroke-width="25"/>
  </g>
  <g opacity="0.5">
    <path d="M256,100 C328.3,100 387,158.7 387,231 C387,303.3 328.3,362 256,362 C183.7,362 125,303.3 125,231 C125,158.7 183.7,100 256,100 Z" fill="none" stroke="#6BA5F5" stroke-width="25"/>
  </g>
  
  <!-- Main lifesaver ring -->
  <circle cx="256" cy="231" r="100" fill="white"/>
  <circle cx="256" cy="231" r="80" fill="url(#grad1)"/>
  
  <!-- Lifesaver segments -->
  <g>
    <rect x="240" y="131" width="32" height="50" fill="#4169E1" rx="4"/>
    <rect x="240" y="281" width="32" height="50" fill="#4169E1" rx="4"/>
    <rect x="306" y="215" width="50" height="32" fill="#4169E1" rx="4"/>
    <rect x="156" y="215" width="50" height="32" fill="#4169E1" rx="4"/>
  </g>
  
  <!-- Inner center circle -->
  <circle cx="256" cy="231" r="50" fill="url(#grad1)" opacity="0.8"/>
</svg>
